# xmcd
#
# Track frame offsets:
#	150
#	15323
#	29137
#	43538
#	75276
#	95830
#	109872
#	125375
#	138678
#	154477
#	168611
#	190625
#	209127
#	222494
#	236241
#	248661
#
# Disc length: 3556
#
# Revision: 3
# Processed by: cddbd v1.5.1PL0 Copyright (c) Steve Scherf et al.
# Submitted via: CDex 1.50Beta7
# Normalized: r2:TDELIM( - )
#
DISCID=ea0de210
DTITLE=Heart And Soul - Jazz For You [CD2)
DYEAR=1900
DGENRE=Jazz
TTITLE0=Louis Armstrong - What A Wonderful World
TTITLE1=Frank Sinatra - Night And Day
TTITLE2=Gary Burton - Stella By Starlight
TTITLE3=Ben Webster - The Night Is Blue
TTITLE4=Joe Williams - Come Back Baby
TTITLE5=Johnny Hodges and His Orchestra - Passion Flower
TTITLE6=Jelly Roll Morton - Smoke House Blues
TTITLE7=Cab Calloway - Stormy Weather
TTITLE8=Artie Shaw - I Cover The Waterfront
TTITLE9=Paul Desmond - Take Ten
TTITLE10=Tito Puente and His Orchestra - Lotus Land
TTITLE11=Gerry Mulligan - Soft Shoes
TTITLE12=Lionel Hampton and His Orchestra - Blue Because Of You
TTITLE13=Dizzy Gillespie - You Go To My Head
TTITLE14=Nina Simone - Do I Move You?
TTITLE15=Stephane Grappelli - Dany Boy (Folklore)
EXTD=
EXTT0=
EXTT1=
EXTT2=
EXTT3=
EXTT4=
EXTT5=remastered 1995
EXTT6=
EXTT7=
EXTT8=
EXTT9=
EXTT10=
EXTT11=
EXTT12=
EXTT13=
EXTT14=
EXTT15=
PLAYORDER=
